{"title":"Chun feng chen zui de ye wan AKA Spring Fever (2009)","uid":7080511,"size":1258121899,"categoryP":"video","categoryS":"movies","magnet":"?xt=urn:btih:fd38d26c4f1b98f80a857e060b7b77748ce6ff09&amp;dn=Chun+feng+chen+zui+de+ye+wan+AKA+Spring+Fever+%282009%29&amp;tr=udp%3A%2F%2Ftracker.openbittorrent.com%3A80&amp;tr=udp%3A%2F%2Fopen.demonii.com%3A1337&amp;tr=udp%3A%2F%2Ftracker.coppersurfer.tk%3A6969&amp;tr=udp%3A%2F%2Fexodus.desync.com%3A6969","seeders":4,"leechers":1,"uploader":"rpessoa","files":2,"time":1331011097,"description":"Chun feng chen zui de ye wan AKA Spring Fever (2009)\nLou Ye\n\nHired to spy on a philandering husband, Luo Haitao soon becomes entangled in a clandestine affair with the other man. Along with Luo's girlfriend, they succumb to the delirium of drunken nights, but how long can their tryst last?\n &lt;a href=&quot;\nhttp://www.imdb.com/title/tt1422119/&quot; rel=&quot;nofollow&quot; target=&quot;_NEW&quot;&gt;\nhttp://www.imdb.com/title/tt1422119/&lt;/a&gt;\n\nSource: DVD Rip\n\nGeneral\nComplete name                            : Chun feng chen zui de ye wan AKA Spring Fever (2009)Spring fever.2009.XviD.avi\nFormat                                   : AVI\nFormat/Info                              : Audio Video Interleave\nFile size                                : 1.17 GiB\nDuration                                 : 1h 45mn\nOverall bit rate                         : 1 588 Kbps\nWriting application                      : VirtualDubMod 1.5.10.2 (build 2542/release)\nWriting library                          : VirtualDubMod build 2542/release\n\nVideo\nID                                       : 0\nFormat                                   : MPEG-4 Visual\nFormat profile                           : Advanced Simple@L5\nFormat settings, BVOP                    : 2\nFormat settings, QPel                    : No\nFormat settings, GMC                     : No warppoints\nFormat settings, Matrix                  : Default (H.263)\nMuxing mode                              : Packed bitstream\nCodec ID                                 : XVID\nCodec ID/Hint                            : XviD\nDuration                                 : 1h 45mn\nBit rate                                 : 1 387 Kbps\nWidth                                    : 720 pixels\nHeight                                   : 384 pixels\nDisplay aspect ratio                     : 1.875\nFrame rate                               : 25.000 fps\nColor space                              : YUV\nChroma subsampling                       : 4:2:0\nBit depth                                : 8 bits\nScan type                                : Progressive\nCompression mode                         : Lossy\nBits/(Pixel*Frame)                       : 0.201\nStream size                              : 1.02 GiB (87%)\nWriting library                          : XviD 1.2.1 (UTC 2008-12-04)\n\nAudio\nID                                       : 1\nFormat                                   : AC-3\nFormat/Info                              : Audio Coding 3\nMode extension                           : CM (complete main)\nCodec ID                                 : 2000\nDuration                                 : 1h 45mn\nBit rate mode                            : Constant\nBit rate                                 : 192 Kbps\nChannel(s)                               : 2 channels\nChannel positions                        : Front: L R\nSampling rate                            : 48.0 KHz\nBit depth                                : 16 bits\nCompression mode                         : Lossy\nStream size                              : 145 MiB (12%)\nAlignment                                : Split accross interleaves\nInterleave, duration                     : 40 ms (1.00 video frame)\nInterleave, preload duration             : 500 ms\n\nLanguage: Mandarin | Cantonese\nSubtitles: French\n\nOriginally uploaded by goofygoober @ asiatorrents","torrent":{"xt":"urn:btih:fd38d26c4f1b98f80a857e060b7b77748ce6ff09","amp;dn":"Chun+feng+chen+zui+de+ye+wan+AKA+Spring+Fever+%282009%29","amp;tr":["udp%3A%2F%2Ftracker.openbittorrent.com%3A80","udp%3A%2F%2Fopen.demonii.com%3A1337","udp%3A%2F%2Ftracker.coppersurfer.tk%3A6969","udp%3A%2F%2Fexodus.desync.com%3A6969"],"infoHash":"fd38d26c4f1b98f80a857e060b7b77748ce6ff09","infoHashBuffer":{"type":"Buffer","data":[253,56,210,108,79,27,152,248,10,133,126,6,11,123,119,116,140,230,255,9]},"announce":[],"urlList":[]}}